<svg width="100" height="32" viewBox="0 0 100 32" fill="none" xmlns="http://www.w3.org/2000/svg">
<path d="M74 0C75.1063 0 76 0.895625 76 2V4H98C99.1063 4 100 4.89562 100 6C100 7.10625 99.1063 8 98 8H76V30C76 31.1063 75.1063 32 74 32C72.8956 32 72 31.1063 72 30V8H70C68.8956 8 68 7.10625 68 6C68 4.89562 68.8956 4 70 4H72V2C72 0.895625 72.8956 0 74 0ZM96 10C97.1063 10 98 10.8937 98 12V22C98 23.1063 97.1063 24 96 24H80C78.8937 24 78 23.1063 78 22V12C78 10.8937 78.8937 10 80 10H96Z" fill="black"/>
<path d="M25.4181 9.14959L25.4404 14.2429C25.4436 15.3723 24.5314 16.2886 23.4064 16.2886H13.2236C12.1001 16.2886 11.1892 15.3755 11.1892 14.2525V9.14959H10.1709C9.59792 9.14959 9.15234 8.70102 9.15234 8.12837C9.15234 7.84205 9.24782 7.58754 9.47048 7.36484L17.6189 0.255018C17.8414 0.0318772 18.0957 0 18.3181 0C18.5406 0 18.7949 0.0637544 18.9887 0.22314L22.3735 3.20363V2.03607C22.3735 1.47392 22.8279 1.01803 23.3905 1.01803H24.4075C24.97 1.01803 25.4245 1.47392 25.4245 2.03607V5.88551L27.1026 7.36484C27.3568 7.58754 27.4871 7.84205 27.4522 8.12837C27.4522 8.70102 26.9754 9.14959 26.4351 9.14959H25.4181Z" fill="black"/>
<path d="M5.35996 3.93164C6.00204 3.93164 6.55479 4.38062 6.67762 5.0012L8.88303 17.4118H26.8861C27.1851 17.4118 30.0694 6.42872 30.3183 6.56304C31.0129 6.93783 32.2042 7.09123 31.97 7.91492L28.955 18.4427C28.7372 19.1993 28.0337 19.7201 27.2353 19.7201H9.53069L10.0444 22.3514H27.2465C27.9891 22.3514 28.5865 22.938 28.5865 23.6672C28.5865 24.3963 27.9891 24.9829 27.2465 24.9829H8.88303C8.2912 24.9829 7.73845 24.5333 7.61562 23.9138L4.25112 6.56304H1.33999C0.600204 6.56304 0 5.97372 0 5.24734C0 4.52096 0.600204 3.93164 1.33999 3.93164H5.35996ZM7.14662 29.3685C7.14662 27.9158 8.34703 26.7371 9.8266 26.7371C11.3062 26.7371 12.5066 27.9158 12.5066 29.3685C12.5066 30.8213 11.3062 31.9999 9.8266 31.9999C8.34703 31.9999 7.14662 30.8213 7.14662 29.3685ZM28.5865 29.3685C28.5865 30.8213 27.3861 31.9999 25.9065 31.9999C24.4269 31.9999 23.2265 30.8213 23.2265 29.3685C23.2265 27.9158 24.4269 26.7371 25.9065 26.7371C27.3861 26.7371 28.5865 27.9158 28.5865 29.3685Z" fill="black"/>
<path d="M50.6695 9.96533H49.3302C49.2111 9.96533 49.1516 10.0249 49.1516 10.1439V17.1528H42.5003C42.3813 17.1528 42.3218 17.2124 42.3218 17.3314V18.6707C42.3218 18.7897 42.3813 18.8493 42.5003 18.8493H49.1516V25.8582C49.1516 25.9772 49.2111 26.0368 49.3302 26.0368H50.6695C50.7885 26.0368 50.848 25.9772 50.848 25.8582V18.8493H57.5003C57.6194 18.8493 57.6789 18.7897 57.6789 18.6707V17.3314C57.6789 17.2124 57.6194 17.1528 57.5003 17.1528H50.848V10.1439C50.848 10.0249 50.7885 9.96533 50.6695 9.96533Z" fill="black"/>
</svg>
