<svg width="32" height="33" viewBox="0 0 32 33" fill="none" xmlns="http://www.w3.org/2000/svg">
<path d="M25.4185 9.31851L25.4407 14.5059C25.4439 15.6561 24.5318 16.5893 23.4067 16.5893H13.2239C12.1004 16.5893 11.1896 15.6594 11.1896 14.5156V9.31851H10.1713C9.59828 9.31851 9.15271 8.86166 9.15271 8.27844C9.15271 7.98683 9.24818 7.72762 9.47084 7.50082L17.6193 0.259726C17.8418 0.0324657 18.096 0 18.3185 0C18.541 0 18.7952 0.0649315 18.9891 0.22726L22.3738 3.26277V2.07366C22.3738 1.50114 22.8283 1.03683 23.3908 1.03683H24.4078C24.9704 1.03683 25.4249 1.50114 25.4249 2.07366V5.99417L27.1029 7.50082C27.3572 7.72762 27.4875 7.98683 27.4525 8.27844C27.4525 8.86166 26.9758 9.31851 26.4355 9.31851H25.4185Z" fill="black"/>
<path d="M5.35996 4.00431C6.00204 4.00431 6.55479 4.46158 6.67762 5.09361L8.88303 17.7334H26.8861C27.1851 17.7334 30.0694 6.54749 30.3183 6.68429C31.0129 7.066 32.2042 7.22223 31.97 8.06113L28.955 18.7833C28.7372 19.5538 28.0337 20.0842 27.2353 20.0842H9.53069L10.0444 22.7642H27.2465C27.9891 22.7642 28.5865 23.3616 28.5865 24.1042C28.5865 24.8468 27.9891 25.4442 27.2465 25.4442H8.88303C8.2912 25.4442 7.73845 24.9863 7.61562 24.3554L4.25112 6.68429H1.33999C0.600204 6.68429 0 6.08409 0 5.3443C0 4.60451 0.600204 4.00431 1.33999 4.00431H5.35996ZM7.14662 29.9108C7.14662 28.4312 8.34703 27.2308 9.8266 27.2308C11.3062 27.2308 12.5066 28.4312 12.5066 29.9108C12.5066 31.3904 11.3062 32.5908 9.8266 32.5908C8.34703 32.5908 7.14662 31.3904 7.14662 29.9108ZM28.5865 29.9108C28.5865 31.3904 27.3861 32.5908 25.9065 32.5908C24.4269 32.5908 23.2265 31.3904 23.2265 29.9108C23.2265 28.4312 24.4269 27.2308 25.9065 27.2308C27.3861 27.2308 28.5865 28.4312 28.5865 29.9108Z" fill="black"/>
</svg>
