<?xml version="1.0" encoding="utf-8"?>
<!-- Generator: Adobe Illustrator 24.0.3, SVG Export Plug-In . SVG Version: 6.00 Build 0)  -->
<svg version="1.1" id="Layer_1" xmlns="http://www.w3.org/2000/svg" xmlns:xlink="http://www.w3.org/1999/xlink" x="0px" y="0px"
	 viewBox="0 0 200.55 144" style="enable-background:new 0 0 200.55 144;" xml:space="preserve">
<style type="text/css">
	.st0{fill:#666666;}
</style>
<g id="AI_home_1_" transform="translate(1 1)">
	<g id="Group_64_1_" transform="translate(16.495 20.011)">
		<rect id="Rectangle_1_1_" x="85.99" y="61.41" class="st0" width="13.65" height="13.65"/>
	</g>
	<g id="Group_65_1_">
		<path id="Path_307_1_" class="st0" d="M141.87,69.86l-10.46-30.86c-0.39-1.06-1.42-1.75-2.54-1.7h-9.47l-0.85-7.93
			c-0.14-1.53-1.43-2.7-2.97-2.68l0,0c-1.54-0.02-2.84,1.15-2.97,2.69l-0.85,7.93H70.65c-1.09,0.09-2.05,0.73-2.54,1.7
			c0,0.14,0,0.14-0.14,0.27c0,0.14,0,0.14-0.14,0.27L57.37,70.42v0.85c-0.09,1.62,1.08,3.03,2.68,3.26h7.91v31.85
			c0,2.97,2.4,5.37,5.37,5.38c0,0,0,0,0,0h52.99c2.97,0,5.37-2.41,5.37-5.38c0,0,0,0,0,0V74.53h7.63c1.8-0.23,3.07-1.88,2.84-3.67
			C142.12,70.51,142.02,70.17,141.87,69.86z M126.32,106.38H73.33V74.53h52.99V106.38z M126.32,69.15H83.35l-9.03-26.47h36.88
			l-0.85,7.93l9.89-6.09l-0.14-1.84h7.07l8.9,26.47L126.32,69.15z"/>
	</g>
  <symbol><text style="fill: #666666;">36%</text></symbol>
</g>
</svg>
